<?xml version="1.0" standalone="no"?>
<!DOCTYPE svg PUBLIC "-//W3C//DTD SVG 20010904//EN"
 "http://www.w3.org/TR/2001/REC-SVG-20010904/DTD/svg10.dtd">
<svg version="1.0" xmlns="http://www.w3.org/2000/svg"
 width="480.000000pt" height="480.000000pt" viewBox="0 0 480.000000 480.000000"
 preserveAspectRatio="xMidYMid meet">
<metadata>
Created by potrace 1.11, written by Peter Selinger 2001-2013
</metadata>
<g transform="translate(0.000000,480.000000) scale(0.100000,-0.100000)"
fill="#000000" stroke="none">
<path d="M2020 4020 c-419 -58 -753 -181 -1075 -395 -232 -155 -436 -363 -609
-620 -50 -74 -176 -323 -176 -347 0 -8 -4 -18 -9 -23 -32 -35 -101 -328 -137
-583 l-18 -123 27 -192 c36 -258 66 -373 150 -592 18 -44 155 -318 170 -336
11 -15 79 -18 627 -28 338 -7 1268 -13 2067 -14 1442 -2 1452 -2 1468 18 39
51 127 220 164 315 51 132 75 227 106 413 20 121 24 173 20 290 -10 376 -126
760 -327 1081 -184 293 -471 579 -768 762 -497 308 -1133 450 -1680 374z m387
-186 c2 -6 -6 -14 -17 -17 -20 -5 -21 -11 -18 -119 l3 -113 38 -3 c40 -3 77
18 77 45 0 8 12 13 30 13 32 0 36 -15 21 -70 l-7 -25 -154 4 c-85 1 -157 5
-160 8 -3 2 6 12 18 22 21 16 24 27 29 129 5 98 4 112 -10 112 -17 0 -31 16
-24 28 8 11 170 -1 174 -14z m-375 -64 c115 -169 132 -190 150 -190 42 0 8
-25 -43 -32 -30 -4 -69 -9 -86 -12 -23 -3 -33 -1 -33 9 0 7 6 15 12 17 16 6
-17 59 -34 55 -7 -1 -15 14 -19 33 -4 19 -14 64 -22 100 -10 47 -11 67 -3 72
22 15 41 2 78 -52z m961 33 c78 -27 89 -40 50 -58 -23 -10 -39 -77 -27 -108 4
-11 0 -19 -10 -23 -9 -4 -24 -23 -32 -43 -13 -32 -13 -37 1 -47 16 -12 21 -34
8 -34 -21 0 -163 52 -163 60 0 3 10 10 22 15 13 6 25 23 29 40 7 28 22 75 40
120 18 46 19 63 4 75 -16 13 -20 30 -7 30 4 0 42 -12 85 -27z m-1069 -9 c9
-23 7 -79 -3 -89 -4 -6 -11 -22 -15 -37 -5 -23 -3 -27 21 -30 37 -4 41 -26 6
-33 -50 -11 -53 -14 -53 -41 0 -18 6 -28 20 -31 39 -10 13 -28 -50 -35 -73 -8
-91 -2 -63 21 12 9 34 58 53 116 18 55 36 109 41 120 4 11 10 28 13 38 7 21
22 22 30 1z m-240 -90 c5 -18 2 -23 -20 -28 -18 -5 -32 -2 -44 9 -12 11 -26
14 -44 9 -30 -7 -31 -12 -12 -56 17 -40 39 -92 56 -135 9 -25 19 -33 37 -33
29 0 27 -23 -3 -28 -20 -3 -87 -28 -117 -43 -27 -15 -41 0 -21 22 16 18 16 22
-11 86 -61 149 -62 151 -95 131 -12 -8 -20 -23 -20 -39 0 -21 -6 -28 -26 -33
-15 -4 -27 -6 -28 -4 -6 12 -25 72 -23 73 1 1 72 28 157 59 85 32 162 61 170
66 15 8 30 -11 44 -56z m1463 46 c23 -11 51 -33 63 -50 19 -27 20 -35 10 -60
-23 -55 -86 -74 -159 -49 -25 9 -29 14 -20 25 6 8 18 14 27 14 46 0 69 67 32
93 -13 9 -18 20 -14 31 8 20 12 20 61 -4z m345 -151 c27 -15 17 -34 -19 -34
-44 -1 -77 -28 -107 -86 -30 -60 -31 -76 -11 -103 21 -27 19 -46 -4 -46 -11 0
-38 21 -60 46 -32 37 -41 55 -41 84 0 62 54 143 103 154 31 6 117 -3 139 -15z
m-2222 -69 c0 -3 -10 -11 -21 -19 -17 -10 -27 -10 -44 -1 -18 9 -28 8 -58 -10
-20 -12 -37 -26 -37 -32 0 -17 34 -68 45 -68 16 1 49 29 42 37 -8 7 21 43 35
43 5 0 13 -10 18 -22 6 -13 16 -31 22 -41 17 -23 -4 -38 -42 -31 -14 3 -34 -1
-44 -9 -19 -14 -19 -15 10 -55 l31 -41 36 25 c27 18 37 32 37 51 0 23 23 52
42 53 8 0 43 -69 37 -74 -16 -15 -240 -146 -249 -146 -6 0 -8 10 -4 25 5 18
-1 35 -20 59 -14 19 -26 39 -26 44 0 6 -3 12 -7 14 -5 2 -20 22 -35 45 -21 32
-32 40 -48 36 -13 -3 -20 -1 -20 8 1 8 58 49 128 91 l127 77 22 -27 c13 -15
23 -29 23 -32z m2291 29 c32 -17 79 -89 79 -122 0 -49 -47 -122 -90 -142 -37
-17 -52 -17 -138 1 -49 10 -39 37 17 45 51 7 79 35 106 106 15 39 15 46 1 74
-22 44 -12 58 25 38z m241 -157 c2 -4 27 -27 56 -51 28 -24 52 -50 52 -58 0
-16 -16 -17 -26 -2 -8 14 -164 -139 -164 -161 0 -18 52 -60 74 -60 8 0 18 5
21 10 9 14 27 12 49 -5 18 -13 17 -15 -15 -42 -18 -15 -36 -28 -40 -28 -8 0
-120 89 -186 149 -45 40 -47 51 -10 51 27 0 184 159 168 170 -16 9 -13 35 3
35 8 0 16 -3 18 -8z m-1302 -31 c102 -10 132 -15 270 -48 70 -16 153 -40 185
-53 11 -4 40 -16 65 -25 275 -101 561 -296 755 -515 130 -147 234 -314 305
-490 12 -30 26 -63 31 -72 5 -10 13 -34 18 -55 6 -21 17 -65 26 -98 28 -102
47 -245 47 -360 1 -116 -16 -278 -35 -332 l-11 -33 -1788 0 -1788 0 -9 23
c-73 186 -90 508 -40 757 10 51 58 209 78 255 12 27 100 205 115 231 72 129
244 322 391 440 57 46 242 163 295 187 19 8 66 29 103 46 38 17 74 31 81 31 6
0 16 4 22 9 5 4 27 13 49 19 22 6 72 19 110 30 225 64 447 80 725 53z m-1614
-23 c-4 -19 9 -38 72 -100 51 -52 84 -78 99 -78 13 0 23 -4 23 -9 0 -15 -111
-112 -121 -105 -6 4 -6 11 2 21 10 12 3 24 -44 71 -55 55 -80 63 -60 19 6 -12
18 -48 28 -80 18 -57 18 -58 -1 -78 -20 -20 -20 -19 -102 10 -45 16 -84 26
-87 22 -2 -4 21 -31 51 -60 41 -37 61 -50 75 -46 29 9 23 -5 -18 -47 -42 -43
-58 -48 -48 -17 6 17 -8 36 -71 100 -64 64 -82 77 -101 73 -35 -9 -28 7 30 63
l52 51 75 -29 c73 -28 106 -27 83 3 -5 7 -18 41 -28 76 l-18 63 48 49 c54 55
70 62 61 28z m3243 -260 c40 -45 50 -63 42 -71 -9 -9 -14 -8 -21 2 -10 17 -5
19 -100 -59 -30 -25 -62 -52 -72 -60 -10 -8 -18 -25 -18 -38 0 -32 -8 -27 -69
40 -51 56 -62 91 -20 65 13 -8 22 -9 27 -2 4 6 42 39 85 74 43 36 77 71 76 80
-4 45 6 41 70 -31z m120 -182 c35 -22 121 -140 121 -166 0 -5 -12 -17 -26 -26
-23 -16 -26 -16 -41 -1 -13 13 -14 21 -6 39 12 28 3 56 -27 83 l-22 20 -17
-22 c-17 -20 -17 -26 -3 -83 14 -55 14 -65 -1 -95 -21 -43 -64 -54 -110 -28
-31 18 -125 145 -126 170 -1 7 11 20 25 29 24 16 26 16 42 0 14 -13 14 -20 4
-36 -17 -27 -15 -37 9 -72 16 -22 28 -28 48 -26 l26 3 -4 102 -3 101 28 16
c38 20 38 20 83 -8z m-3843 -132 c20 -14 22 -19 12 -31 -7 -8 -22 -19 -34 -23
-24 -10 -59 -69 -47 -81 5 -4 21 -15 38 -23 28 -15 30 -14 41 7 8 15 9 26 2
34 -11 14 -2 53 13 53 5 0 9 -4 9 -10 0 -5 6 -10 13 -10 21 -1 48 -27 42 -41
-3 -8 -15 -19 -28 -24 -37 -17 -33 -42 12 -64 42 -22 42 -22 68 27 11 20 10
28 -2 45 -28 40 -13 78 22 58 52 -30 56 -8 -51 -233 -22 -46 -36 -53 -36 -18
0 9 -18 26 -42 38 -24 13 -63 34 -88 47 -31 18 -53 24 -72 19 -33 -7 -33 -6
-8 43 20 41 67 144 81 181 10 26 21 28 55 6z m4033 -156 c7 -18 19 -47 27 -65
8 -17 14 -36 14 -42 0 -14 -17 -14 -25 -1 -9 15 -26 12 -62 -10 l-32 -19 21
-48 c11 -26 22 -49 23 -51 1 -1 15 3 31 9 16 7 34 13 39 13 6 1 11 11 13 24 5
31 15 28 30 -10 7 -18 20 -48 28 -66 8 -18 14 -37 14 -42 0 -15 -28 -12 -33 3
-3 9 -10 9 -33 -2 -38 -18 -59 -27 -119 -49 -28 -11 -55 -29 -61 -41 -14 -26
-21 -18 -52 56 -27 64 -27 65 1 58 13 -4 42 2 65 12 34 14 41 22 36 38 -11 40
-35 85 -45 85 -23 0 -89 -42 -89 -56 0 -27 -24 -9 -35 27 -5 19 -18 49 -27 66
-11 23 -13 35 -5 40 6 3 13 1 15 -5 5 -15 36 -16 60 -2 9 5 52 25 95 44 48 22
77 41 77 50 0 26 14 18 29 -16z m-4195 -176 c4 -12 40 -29 114 -54 85 -29 108
-41 110 -57 6 -39 -17 -58 -113 -96 -52 -20 -95 -40 -95 -43 0 -8 108 -42 132
-42 9 0 18 6 21 13 2 6 7 9 11 6 6 -6 -12 -98 -21 -109 -2 -3 -12 6 -22 18
-22 30 -188 89 -204 73 -19 -19 -28 -12 -21 17 16 72 24 87 56 100 47 19 100
39 121 46 32 10 19 33 -25 40 -23 4 -48 12 -56 19 -11 9 -17 7 -27 -7 -8 -10
-19 -15 -25 -11 -9 5 -9 10 -1 18 6 6 11 21 11 33 0 48 23 72 34 36z m4349
-274 c3 -24 12 -84 19 -135 16 -99 12 -113 -29 -113 -30 0 -40 26 -19 49 19
21 23 111 4 111 -26 0 -78 -25 -78 -37 0 -7 9 -21 20 -30 25 -22 25 -39 1 -53
-32 -17 -71 -13 -71 8 0 10 5 23 11 29 6 6 8 21 4 33 -6 19 -12 21 -43 17 -46
-8 -54 -17 -46 -56 5 -22 17 -39 35 -50 41 -23 37 -47 -8 -54 -20 -4 -38 -5
-40 -3 -2 1 -8 29 -13 62 -5 32 -15 89 -22 127 -12 70 -8 88 15 69 12 -10 37
-7 199 25 15 3 30 14 33 24 10 32 23 21 28 -23z m-4423 -122 c0 -10 20 -19 58
-26 31 -6 77 -16 102 -22 31 -6 46 -6 48 1 2 6 11 11 19 11 13 0 14 -10 10
-57 -4 -32 -6 -64 -7 -70 0 -17 -20 -17 -20 0 0 15 -61 37 -100 37 -12 0 -41
5 -63 12 -32 10 -41 10 -45 0 -2 -7 -10 -12 -18 -12 -11 0 -13 14 -9 68 2 37
4 68 4 70 3 10 21 -1 21 -12z m97 -246 c62 0 91 4 103 15 14 13 17 8 29 -56
13 -73 9 -97 -13 -66 -9 12 -27 17 -60 17 -43 0 -46 -2 -36 -19 5 -11 10 -33
10 -50 0 -30 2 -31 43 -31 24 0 48 5 55 12 17 17 18 12 25 -66 6 -65 5 -68
-11 -53 -21 20 -204 27 -210 8 -7 -22 -22 -11 -22 17 0 15 -5 44 -11 65 -12
44 -4 61 15 34 9 -11 26 -17 50 -17 33 0 36 2 35 28 -2 59 -13 77 -47 79 -18
1 -38 -5 -46 -12 -18 -19 -26 -9 -26 32 0 19 -5 43 -11 54 -6 12 -8 28 -4 36
5 14 8 13 26 -5 17 -19 31 -22 106 -22z m4373 1 c0 -62 -13 -121 -26 -121 -8
0 -14 7 -14 15 0 11 -12 15 -49 15 -40 0 -50 -3 -54 -20 -3 -11 -10 -20 -16
-20 -6 0 -11 9 -11 20 0 17 -7 20 -39 20 -22 0 -44 -6 -51 -15 -20 -24 -25 -9
-21 63 3 76 7 84 25 59 11 -14 30 -17 118 -17 99 0 106 1 111 21 8 29 27 14
27 -20z m-108 -168 c23 -3 44 -1 53 7 8 7 21 10 30 7 12 -5 12 -12 3 -39 -16
-49 -37 -68 -74 -68 -23 0 -38 7 -51 26 l-19 26 -29 -24 c-15 -12 -41 -35 -57
-50 -16 -16 -34 -28 -39 -28 -13 0 -11 61 4 90 20 40 77 73 112 65 17 -4 47
-9 67 -12z m-133 -172 c10 -7 11 -13 2 -30 -7 -11 -18 -21 -25 -21 -16 0 -39
-42 -34 -65 1 -10 11 -23 21 -29 19 -12 16 -15 95 83 27 33 40 41 66 41 19 0
39 -7 47 -16 24 -29 9 -156 -24 -201 -5 -7 -20 -13 -33 -13 -34 0 -31 31 6 58
34 26 42 75 14 86 -20 8 -48 -15 -80 -66 -13 -21 -38 -45 -55 -53 -28 -15 -33
-15 -55 0 -14 9 -28 26 -33 38 -9 26 -2 105 10 113 5 3 9 14 9 25 0 48 34 72
69 50z m-3966 -40 c28 -24 57 -90 64 -142 4 -38 2 -47 -13 -53 -24 -9 -53 19
-36 36 16 16 15 70 -1 92 -7 10 -22 17 -33 14 -15 -3 -20 -15 -25 -63 -7 -65
-33 -97 -69 -88 -23 6 -80 74 -80 95 0 8 -4 18 -9 24 -5 5 -12 25 -16 45 -6
33 -5 37 19 41 33 7 54 -23 31 -42 -20 -17 -19 -37 6 -71 28 -40 45 -25 52 49
9 86 54 113 110 63z"/>
<path d="M2850 3119 c-173 -16 -522 -73 -605 -99 -16 -5 -50 -12 -75 -16 -63
-9 -139 -47 -250 -122 -184 -126 -342 -265 -371 -327 -11 -23 -19 -46 -18 -51
1 -5 1 -30 0 -55 l-1 -46 -75 5 c-70 4 -78 3 -101 -19 -19 -18 -24 -31 -20
-50 3 -17 -1 -31 -13 -41 -10 -9 -20 -21 -22 -27 -3 -9 -12 -9 -34 -1 -17 6
-46 9 -65 6 -48 -7 -117 -42 -128 -64 -5 -10 -3 -60 3 -117 6 -55 10 -103 8
-107 -9 -17 -30 -5 -57 32 -79 106 -203 133 -321 68 -89 -48 -125 -163 -90
-283 18 -65 76 -159 106 -176 30 -16 22 -29 -18 -29 -30 0 -35 -3 -25 -13 10
-9 117 -13 452 -14 422 -2 441 -3 482 -23 24 -11 61 -25 83 -31 60 -15 357
-53 497 -64 31 -2 74 -11 95 -20 39 -17 122 -26 388 -46 190 -13 543 -4 565
16 10 9 81 19 215 30 246 19 305 34 305 74 0 7 31 11 85 11 69 0 85 3 85 15 0
12 -16 15 -85 15 -68 0 -87 3 -91 15 -5 11 -10 12 -18 6 -8 -7 -45 -8 -99 -3
l-87 8 0 -34 0 -33 -62 3 c-59 3 -63 4 -60 26 3 20 -1 22 -47 22 -27 0 -53 -4
-56 -10 -7 -11 -184 -12 -255 -2 -36 6 -45 11 -45 27 0 16 6 20 35 19 19 -1
55 -7 80 -14 52 -14 176 -8 193 9 6 6 33 11 59 11 l48 0 0 65 c0 63 -1 65 -25
65 -14 0 -37 -7 -51 -17 -22 -14 -44 -15 -167 -9 -104 5 -146 10 -156 21 -12
11 -12 18 -3 27 9 9 26 9 75 0 90 -17 207 -15 251 3 41 17 103 21 274 17 l112
-2 0 -26 c0 -26 0 -26 -67 -21 -102 8 -214 15 -164 10 l44 -4 -6 -63 -6 -63
99 2 c55 1 100 -2 100 -7 0 -42 123 89 161 172 9 19 21 46 27 60 23 52 44 172
39 233 -10 155 -55 266 -148 362 -88 92 -142 117 -259 123 -52 2 -97 8 -100
12 -3 4 -27 23 -54 44 -86 65 -178 96 -289 96 -70 0 -78 2 -73 18 3 9 7 82 8
162 3 131 1 148 -17 175 -33 50 -68 77 -97 74 -7 -1 -51 -5 -98 -10z m136 -84
l27 -35 -5 -145 c-3 -80 -7 -147 -10 -150 -4 -4 -59 -8 -303 -20 -172 -9 -381
-48 -464 -86 -24 -11 -57 -19 -75 -17 -28 3 -33 8 -49 58 -17 51 -28 102 -43
191 -4 24 -15 41 -33 52 l-26 16 30 12 c155 61 656 153 862 158 60 1 63 0 89
-34z m-997 -214 c18 -18 25 -50 36 -156 3 -27 7 -64 10 -81 4 -24 0 -37 -21
-57 -24 -24 -54 -36 -54 -21 0 3 13 16 29 30 26 22 28 27 20 62 -5 20 -9 61
-9 90 0 54 -22 112 -42 112 -10 0 -175 -114 -188 -130 -3 -3 -34 -28 -70 -55
-123 -93 -119 -88 -122 -174 -2 -44 -7 -74 -13 -71 -12 7 -14 129 -2 157 5 12
37 44 70 70 114 90 321 243 329 243 4 0 16 -8 27 -19z m1219 -176 c121 -31
214 -93 287 -190 65 -86 109 -193 124 -300 6 -38 9 -70 8 -71 -7 -7 -245 -24
-362 -26 l-139 -3 -17 35 c-111 228 -148 275 -344 442 -6 6 -5 12 3 17 13 8
62 1 144 -20 65 -17 90 0 108 75 l13 56 58 0 c31 0 84 -7 117 -15z m-578 -86
c54 -19 190 -107 238 -153 106 -101 237 -329 230 -398 -3 -28 -5 -30 -12 -13
-4 11 -19 44 -32 73 -13 29 -24 55 -24 57 0 14 -94 148 -141 202 -90 104 -227
190 -346 220 -32 8 -65 16 -73 18 -8 2 -19 4 -25 5 -5 1 1 5 15 9 30 8 122 -2
170 -20z m-750 -95 c0 -9 -9 -18 -20 -21 -12 -3 -69 -30 -127 -59 -95 -49
-134 -61 -107 -34 7 7 244 130 252 130 1 0 2 -7 2 -16z m310 -3 c0 -36 -213
-149 -460 -242 -158 -60 -167 -64 -233 -93 -48 -20 -57 -20 -57 2 0 13 29 28
113 60 147 56 127 47 327 145 96 47 197 93 223 102 26 10 50 22 53 26 7 12 34
11 34 0z m269 -42 c24 -13 60 -43 80 -65 38 -43 101 -159 101 -185 0 -8 4 -19
9 -24 12 -14 25 -95 14 -95 -4 0 -14 19 -21 43 -28 90 -98 208 -151 255 -63
56 -170 75 -241 44 -25 -11 -55 -29 -67 -41 -33 -31 -83 -107 -83 -126 0 -9
-6 -28 -14 -43 -13 -26 -28 -93 -31 -141 -2 -37 -19 -36 -38 3 -15 32 -15 40
-1 88 46 160 131 269 244 312 36 14 155 -2 199 -25z m-969 -41 c27 -9 40 -19
40 -30 0 -16 -10 -18 -75 -18 -66 0 -75 2 -75 18 0 41 39 52 110 30z m932 -31
c58 -20 58 -29 1 -22 -162 22 -273 -124 -273 -359 0 -104 22 -197 67 -285 18
-35 31 -66 29 -68 -2 -2 -22 4 -44 13 -35 13 -46 25 -71 77 -40 83 -50 134
-51 248 0 183 72 334 184 385 58 26 105 29 158 11z m-1122 -113 c37 -19 43
-29 27 -43 -16 -13 -87 6 -94 25 -3 7 -11 10 -18 8 -18 -7 -30 16 -14 27 16
11 57 3 99 -17z m1034 -21 c9 -59 27 -100 61 -137 27 -29 31 -41 15 -51 -13
-8 -50 15 -84 52 -33 35 -43 24 -48 -47 -3 -53 -2 -55 22 -56 14 0 42 -4 63
-8 34 -6 38 -5 47 19 11 28 51 51 74 42 26 -10 20 -64 -9 -83 -22 -14 -30 -15
-53 -5 -22 10 -28 10 -38 -3 -6 -9 -25 -16 -42 -16 -34 0 -78 -16 -104 -38
-16 -13 -18 -13 -24 3 -18 45 16 258 46 285 7 7 28 40 42 68 17 33 25 27 32
-25z m192 -44 c-14 -16 -27 -42 -31 -59 -8 -34 -21 -39 -30 -10 -8 25 9 87 31
111 16 18 19 18 35 3 18 -16 18 -18 -5 -45z m-1406 42 c0 -5 -7 -14 -15 -21
-12 -10 -15 -10 -15 2 0 8 3 18 7 21 9 10 23 9 23 -2z m45 -31 c0 -8 -8 -16
-17 -18 -13 -2 -18 3 -18 18 0 15 5 20 18 18 9 -2 17 -10 17 -18z m118 -23
c46 -8 63 -17 78 -39 17 -24 18 -28 5 -28 -9 0 -16 4 -16 8 0 7 -57 32 -74 32
-4 0 -5 -14 -1 -31 6 -27 4 -30 -12 -27 -12 3 -17 12 -16 30 1 22 -4 28 -28
33 -20 5 -29 13 -29 27 0 15 4 18 18 13 9 -4 43 -12 75 -18z m-431 -98 c43
-11 103 -68 113 -106 9 -39 1 -37 -29 5 -28 41 -116 92 -158 92 -32 0 -91 -51
-114 -97 -14 -29 -19 -34 -22 -20 -11 55 71 137 137 137 20 0 53 -5 73 -11z
m533 -39 c5 -20 20 -53 33 -73 12 -21 22 -41 22 -46 0 -4 16 -7 36 -8 20 -1
41 -7 45 -15 7 -10 11 -11 17 0 6 8 51 16 133 22 68 5 140 14 159 19 94 24
134 31 141 24 4 -4 9 -30 10 -57 3 -49 3 -50 -31 -59 -78 -20 -463 6 -497 34
-7 6 -13 9 -13 5 0 -3 -10 -2 -23 3 -13 5 -42 6 -65 1 -34 -6 -47 -4 -66 11
-29 23 -36 24 -36 4 0 -23 -22 -18 -61 14 -35 29 -87 116 -76 127 11 11 57 -6
57 -21 0 -8 5 -15 11 -15 5 0 8 -3 5 -8 -6 -10 22 -47 30 -39 4 3 -1 18 -10
31 -26 41 -21 60 14 53 17 -4 30 -2 30 3 0 6 14 10 30 10 23 0 30 -5 30 -19 0
-11 5 -23 10 -26 6 -3 10 -14 10 -24 0 -20 23 -45 33 -35 3 3 -3 21 -14 40
-10 19 -19 46 -19 60 0 21 4 25 22 22 16 -2 25 -13 33 -38z m49 22 c2 -4 7
-24 11 -45 12 -63 -21 -38 -40 31 -5 16 -2 22 9 22 8 0 17 -3 20 -8z m2226
-17 c0 -11 -13 -15 -47 -16 -27 -1 -64 -3 -83 -4 -164 -12 -369 -14 -375 -5
-4 6 -5 14 -2 16 3 3 85 8 183 11 99 3 181 7 183 9 2 2 35 4 73 4 54 0 68 -3
68 -15z m-2836 -60 c35 -53 60 -66 49 -26 -6 23 13 37 32 21 11 -9 10 -17 -6
-45 -18 -30 -23 -33 -40 -22 -10 6 -19 15 -19 19 0 3 -13 9 -29 13 -37 8 -75
70 -51 85 23 15 25 14 64 -45z m1231 -113 c11 -62 29 -127 44 -155 55 -107
188 -186 269 -158 75 26 106 44 160 97 57 55 82 62 58 16 -31 -59 -121 -126
-203 -152 -72 -22 -179 21 -256 105 -63 68 -127 244 -127 348 0 52 1 52 18 29
10 -13 26 -69 37 -130z m-1330 117 c4 -5 -1 -26 -10 -46 -21 -43 -14 -97 19
-165 36 -74 10 -62 -33 15 -31 56 -37 109 -16 162 17 45 28 54 40 34z m3016
-80 c10 -30 10 -42 1 -51 -11 -11 -378 -39 -542 -42 l-55 -1 -3 35 c-1 19 -8
45 -14 57 -17 33 -4 38 32 13 29 -20 36 -21 93 -12 34 6 148 14 252 17 148 4
192 8 200 20 13 19 23 10 36 -36z m-2791 -5 c12 -31 13 -71 1 -78 -12 -8 -61
17 -61 32 0 6 9 12 19 12 23 0 36 16 21 25 -13 8 -13 35 0 35 6 0 15 -12 20
-26z m-93 -9 c13 -13 13 -18 1 -32 -7 -9 -13 -30 -14 -47 -1 -106 -4 -126 -19
-126 -11 0 -15 12 -15 49 0 28 5 53 10 56 6 3 10 19 10 36 0 16 -4 29 -10 29
-5 0 -10 11 -10 25 0 29 23 34 47 10z m1616 -15 c-3 -11 -9 -23 -14 -26 -13
-8 -11 -158 2 -171 8 -8 4 -15 -12 -27 -31 -21 -34 -20 -47 9 -16 35 -15 105
2 146 26 63 82 118 69 69z m-1675 -17 c2 -9 -7 -13 -26 -13 -37 0 -62 9 -62
22 0 14 83 5 88 -9z m1514 -42 c23 -46 23 -52 10 -86 -14 -34 -15 -35 -28 -16
-8 11 -26 43 -40 71 -20 41 -23 54 -14 66 23 27 47 16 72 -35z m-1012 -12 c52
0 106 -5 120 -9 33 -11 24 -11 -103 -10 -107 1 -108 1 -97 -20 9 -16 8 -22 -5
-26 -11 -4 -29 5 -51 27 -46 44 -45 59 4 48 20 -5 80 -9 132 -10z m-370 -32
c0 -8 -9 -22 -20 -32 -16 -14 -23 -16 -32 -7 -9 9 -7 16 7 32 21 23 45 26 45
7z m400 -32 c0 -10 -10 -15 -30 -15 -20 0 -30 5 -30 15 0 10 10 15 30 15 20 0
30 -5 30 -15z m90 2 c0 -20 -22 -37 -48 -37 -18 0 -23 4 -18 16 3 9 6 20 6 25
0 5 14 9 30 9 18 0 30 -5 30 -13z m125 -39 c11 -3 55 -15 97 -27 94 -25 210
-42 346 -48 122 -6 137 -23 20 -22 -117 1 -257 18 -353 43 -11 3 -42 11 -70
17 -49 11 -85 33 -85 52 0 6 5 6 13 0 6 -6 21 -12 32 -15z m2160 -33 c0 -27
-62 -35 -72 -10 -8 21 14 36 47 33 17 -2 25 -9 25 -23z m-2473 3 c121 -2 164
-11 110 -23 -17 -3 -36 -13 -43 -21 -9 -11 -34 -13 -118 -10 -58 2 -118 7
-133 11 -27 7 -27 7 -10 31 13 19 23 23 47 19 17 -2 83 -5 147 -7z m312 -13
c15 -8 36 -15 45 -15 9 0 21 -4 27 -9 9 -9 69 -22 189 -42 33 -6 115 -12 182
-13 94 -2 125 -7 137 -19 9 -8 16 -18 16 -21 0 -10 -199 -7 -269 5 -120 19
-226 41 -243 50 -10 5 -23 9 -30 9 -21 0 -107 44 -112 57 -7 18 22 16 58 -2z
m1776 -5 c0 -12 -10 -25 -23 -31 -40 -18 -97 17 -70 44 3 4 26 7 50 7 36 0 43
-3 43 -20z"/>
<path d="M1250 1980 c0 -5 5 -10 10 -10 6 0 10 5 10 10 0 6 -4 10 -10 10 -5 0
-10 -4 -10 -10z"/>
<path d="M1360 1910 c0 -5 5 -10 10 -10 6 0 10 5 10 10 0 6 -4 10 -10 10 -5 0
-10 -4 -10 -10z"/>
</g>
</svg>
