<?xml version="1.0" standalone="no"?>
<!DOCTYPE svg PUBLIC "-//W3C//DTD SVG 20010904//EN"
 "http://www.w3.org/TR/2001/REC-SVG-20010904/DTD/svg10.dtd">
<svg version="1.0" xmlns="http://www.w3.org/2000/svg"
 width="466.000000pt" height="466.000000pt" viewBox="0 0 466.000000 466.000000"
 preserveAspectRatio="xMidYMid meet">
<metadata>
Created by potrace 1.11, written by Peter Selinger 2001-2013
</metadata>
<g transform="translate(0.000000,466.000000) scale(0.100000,-0.100000)"
fill="#000000" stroke="none">
<path d="M3230 4525 c-228 -61 -1043 -280 -1810 -485 -767 -205 -1396 -374
-1397 -375 -3 -1 498 -1882 582 -2185 34 -123 267 -996 348 -1300 22 -85 42
-156 43 -158 3 -4 89 19 1912 507 904 243 1647 441 1652 441 4 0 23 7 43 15
l35 14 -15 63 c-9 35 -105 398 -215 808 -109 410 -207 777 -218 815 -10 39
-131 491 -269 1006 -138 515 -251 940 -251 943 0 10 -12 7 -440 -109z m-465
-1247 l751 -301 213 -796 c117 -438 213 -805 214 -815 2 -16 -13 -23 -91 -44
-51 -14 -94 -23 -96 -21 -2 2 -47 168 -100 369 -54 201 -101 368 -105 373 -15
15 -655 267 -662 259 -39 -41 -429 -548 -429 -557 0 -7 43 -174 96 -370 52
-196 94 -361 92 -367 -4 -12 -178 -62 -186 -54 -4 5 -214 782 -224 828 -3 18
580 768 597 768 5 -1 154 -59 330 -129 176 -71 321 -128 323 -127 1 2 -6 29
-16 61 l-18 59 -469 188 c-258 103 -475 188 -480 188 -17 0 -640 -800 -638
-819 1 -9 68 -259 147 -556 80 -297 142 -543 138 -546 -10 -8 -182 -53 -186
-48 -2 2 -76 275 -165 607 l-161 602 386 493 c212 270 391 498 398 504 9 10
111 -27 486 -177 260 -104 475 -188 476 -187 2 2 -6 39 -18 83 l-21 81 -648
260 -648 260 -431 -548 -430 -549 200 -748 c110 -411 202 -755 203 -766 2 -16
-13 -23 -91 -44 -51 -14 -94 -23 -96 -21 -13 14 -436 1622 -429 1633 4 7 233
300 508 650 361 461 504 635 515 631 8 -3 353 -141 765 -307z"/>
</g>
</svg>
